<svg xmlns="http://www.w3.org/2000/svg"  viewBox="0 0 48 48" width="480px" height="480px" baseProfile="basic"><path fill="#fca66c" d="M25.742,35.418C25.741,35.418,25.741,35.418,25.742,35.418c-1.105-3.535-5.699-5.259-10.244-3.84	c-4.545,1.418-7.344,5.449-6.24,8.985c0.842,2.695,3.711,4.336,7.041,4.336c1.038,0,2.122-0.16,3.202-0.497	C24.046,42.985,26.845,38.954,25.742,35.418z"/><path fill="#fca66c" d="M24,39c-1.104,0-2-0.896-2-2V6c0-1.104,0.896-2,2-2s2,0.896,2,2v31C26,38.104,25.104,39,24,39z"/><path fill="#324561" d="M34,36c-0.125,0-0.251-0.023-0.372-0.072c-0.444-0.178-0.7-0.646-0.61-1.117	c2.032-10.595-1.186-13.371-4.297-16.056l-0.299-0.258c-0.417-0.362-0.462-0.993-0.101-1.411c0.363-0.418,0.994-0.461,1.411-0.1	l0.295,0.255c2.668,2.302,5.877,5.072,5.594,12.676c3.456-8.122-0.553-12.189-4.761-16.459c-2.386-2.422-4.854-4.926-5.819-8.173	c-0.157-0.53,0.145-1.086,0.674-1.244c0.536-0.158,1.086,0.145,1.244,0.673c0.822,2.769,3.01,4.989,5.326,7.339	c5.018,5.093,10.705,10.865,2.555,23.488C34.651,35.835,34.331,36,34,36z"/></svg>